<?xml version="1.0" standalone="no"?>
<!DOCTYPE svg PUBLIC "-//W3C//DTD SVG 20010904//EN"
 "http://www.w3.org/TR/2001/REC-SVG-20010904/DTD/svg10.dtd">
<svg version="1.0" xmlns="http://www.w3.org/2000/svg"
 width="500.000000pt" height="500.000000pt" viewBox="0 0 500.000000 500.000000"
 preserveAspectRatio="xMidYMid meet">
<metadata>
Created by potrace 1.14, written by Peter Selinger 2001-2017
</metadata>
<g transform="translate(0.000000,500.000000) scale(0.100000,-0.100000)"
fill="#000000" stroke="none">
<path d="M1906 4615 c-16 -13 -35 -21 -41 -19 -7 3 -25 -10 -40 -28 -15 -18
-39 -34 -52 -35 -13 -1 -30 -9 -39 -17 -8 -9 -20 -16 -26 -16 -11 0 -47 -40
-48 -54 0 -5 -8 -15 -17 -22 -15 -10 -16 -15 -5 -25 10 -11 7 -18 -15 -37 -16
-13 -27 -25 -26 -28 5 -9 -10 -64 -18 -64 -9 0 -9 -7 -9 -99 0 -35 -4 -69 -8
-75 -9 -11 -27 -74 -38 -126 -6 -31 -6 -231 1 -324 3 -45 12 -81 26 -104 l21
-36 -26 -18 c-22 -17 -24 -24 -19 -66 5 -46 58 -201 88 -258 8 -16 15 -37 15
-47 0 -9 10 -22 23 -28 29 -13 96 -126 90 -150 -6 -22 -72 -39 -126 -33 -77 9
-91 7 -115 -22 -23 -26 -26 -27 -73 -18 -46 10 -51 9 -94 -20 -24 -17 -47 -39
-50 -48 -4 -10 -16 -18 -28 -19 -95 -2 -167 -20 -224 -57 -12 -7 -24 -13 -27
-13 -20 3 -28 -2 -45 -30 -11 -18 -17 -38 -14 -45 6 -16 -161 -187 -171 -176
-4 3 -4 -2 0 -12 4 -11 3 -17 -2 -14 -5 3 -17 -3 -26 -14 -10 -10 -16 -18 -13
-18 3 0 -4 -11 -17 -24 -55 -58 -68 -74 -68 -85 0 -6 -9 -16 -20 -23 -11 -7
-20 -18 -20 -25 0 -7 -8 -16 -18 -22 -9 -5 -16 -12 -14 -15 5 -12 2 -29 -5
-23 -6 7 -30 -21 -31 -36 0 -5 -11 -18 -24 -29 -13 -11 -23 -23 -23 -27 0 -7
-15 -26 -52 -66 -13 -13 -23 -27 -23 -30 0 -3 -12 -18 -28 -34 -15 -15 -38
-43 -52 -61 -14 -18 -38 -48 -55 -66 -41 -44 -65 -76 -65 -86 0 -4 -7 -4 -17
-1 -10 4 -14 2 -10 -4 13 -20 -68 -91 -96 -84 -5 1 -6 -3 -3 -8 3 -5 -1 -12
-10 -15 -8 -3 -13 -10 -10 -15 3 -5 -1 -11 -9 -15 -8 -3 -15 -11 -15 -17 0 -6
-11 -21 -25 -33 l-25 -22 2 -404 3 -405 25 0 c14 -1 30 -4 37 -8 6 -4 15 -3
18 3 5 8 12 7 22 -2 19 -15 23 -15 34 4 7 10 9 10 9 0 0 -10 5 -10 20 -2 11 6
20 7 20 2 0 -11 91 -9 109 2 11 7 12 6 6 -5 -8 -12 -6 -12 8 0 14 11 20 11 34
0 15 -12 16 -12 8 1 -5 9 0 8 13 -4 15 -13 22 -15 22 -6 0 9 6 8 19 -4 11 -10
25 -15 30 -11 6 3 11 0 11 -7 0 -9 3 -9 10 2 5 8 10 10 10 4 0 -6 21 -10 50
-10 27 1 50 4 50 8 0 3 9 4 20 1 11 -3 17 -10 13 -17 -4 -6 1 -4 12 4 22 18
18 18 38 2 10 -9 17 -10 22 -2 3 6 12 7 18 3 22 -14 49 -14 41 -1 -6 9 -3 9 9
-1 9 -7 24 -11 32 -7 8 3 15 1 15 -4 0 -5 6 -7 13 -4 27 10 257 10 261 -1 3
-7 5 -7 5 0 1 13 111 8 127 -6 8 -6 14 -6 18 0 7 10 76 13 77 3 0 -4 2 -16 4
-27 2 -11 -1 -23 -8 -27 -9 -6 -9 -8 1 -8 6 0 12 -7 12 -15 0 -8 7 -15 16 -15
8 0 13 -4 10 -8 -8 -13 56 -8 82 6 12 7 20 17 17 22 -3 4 8 11 25 15 18 4 27
11 23 18 -4 6 0 8 10 4 10 -3 17 -2 17 4 0 6 4 8 9 5 4 -3 18 3 30 13 27 24
121 15 121 -11 0 -5 4 -6 10 -3 10 6 72 -24 78 -38 2 -4 8 -5 13 -1 5 3 12 -1
15 -10 3 -8 11 -13 19 -10 7 3 19 -1 26 -8 14 -12 21 -15 59 -23 8 -2 27 -8
41 -13 15 -6 30 -8 33 -5 3 4 6 1 6 -6 0 -8 7 -11 15 -7 8 3 20 -1 27 -8 8 -7
21 -12 31 -10 9 1 17 -1 17 -6 0 -4 12 -7 28 -6 17 0 26 -4 24 -12 -2 -10 3
-10 16 -3 13 7 23 6 32 -2 10 -10 11 -9 4 3 -6 11 -1 10 21 -4 65 -43 95 -57
105 -51 5 3 10 2 10 -3 0 -6 23 -18 50 -28 28 -10 50 -21 50 -25 0 -4 18 -10
40 -14 22 -4 38 -10 36 -14 -2 -3 11 -6 30 -5 19 1 34 -3 34 -9 0 -6 3 -8 6
-4 3 3 17 2 29 -3 16 -6 25 -5 29 3 2 7 5 8 5 2 1 -6 25 -9 58 -7 84 4 93 6
93 14 0 4 8 7 18 7 55 2 72 6 72 15 0 6 5 4 10 -4 7 -12 10 -12 10 -1 0 7 6
11 15 8 8 -4 17 -2 20 4 4 5 10 7 15 4 5 -3 12 0 15 6 4 5 13 8 20 5 7 -2 16
2 19 11 4 9 14 13 26 10 11 -3 18 -1 15 3 -3 5 4 14 15 20 11 6 18 15 15 21
-6 8 2 11 22 8 3 0 10 6 15 15 5 9 14 14 19 10 6 -3 21 6 35 21 13 14 24 20
24 14 0 -7 6 -4 14 6 8 11 11 25 9 33 -9 21 17 61 35 55 11 -5 13 -3 7 8 -7
11 -6 12 6 4 18 -13 38 -12 67 3 12 7 22 9 22 5 0 -4 7 1 15 11 9 11 15 14 15
7 0 -9 5 -8 16 3 8 9 21 13 27 9 7 -3 9 -3 5 2 -4 4 -1 13 6 20 7 7 14 37 15
66 1 30 4 65 6 79 1 14 3 37 4 53 1 25 4 27 42 27 27 0 38 4 33 11 -4 8 -1 8
13 1 12 -7 24 -7 37 0 13 7 20 7 26 -2 5 -9 9 -9 14 -1 4 6 12 11 17 11 6 0 7
-6 3 -12 -6 -9 -3 -9 9 0 9 8 21 11 26 8 5 -4 12 -3 15 2 3 5 21 7 41 6 21 -2
33 1 30 6 -4 6 3 7 18 1 14 -6 28 -7 32 -3 11 12 119 10 134 -2 11 -8 13 -8 7
1 -5 9 1 12 23 9 17 -2 31 0 31 5 0 5 6 6 14 3 16 -6 73 40 81 67 4 10 10 17
14 15 4 -3 7 8 6 24 -1 17 2 30 6 30 4 0 5 10 1 22 -3 11 -1 19 4 16 5 -4 9
17 8 45 0 29 4 55 10 59 7 5 6 8 -3 8 -11 0 -11 3 -1 15 8 9 9 15 2 15 -6 0
-9 9 -7 20 2 11 -2 20 -8 20 -8 0 -8 3 -2 8 13 9 17 32 6 32 -5 0 -12 7 -15
16 -3 8 -2 12 4 9 6 -3 10 1 10 9 0 9 -4 16 -10 16 -5 0 -6 7 -3 17 5 12 3 14
-8 8 -12 -7 -12 -6 -1 7 7 9 9 19 5 21 -5 3 -10 20 -11 38 -2 18 -8 37 -15 41
-9 6 -8 8 3 8 12 0 12 2 2 9 -7 4 -14 14 -15 22 -2 8 -5 19 -8 24 -3 6 -12 30
-19 55 -7 25 -17 49 -22 54 -4 6 -8 18 -8 28 0 10 -4 18 -8 18 -5 0 -9 6 -9
13 -1 17 -7 41 -13 47 -12 12 -30 51 -30 65 0 8 -5 15 -11 15 -5 0 -8 4 -4 9
3 5 -2 16 -10 24 -8 9 -15 23 -15 31 0 9 -4 16 -10 16 -5 0 -10 7 -10 15 0 8
-4 15 -10 15 -5 0 -10 7 -10 15 0 8 -5 15 -11 15 -5 0 -7 4 -4 10 3 5 1 10 -6
10 -7 0 -10 2 -7 5 3 3 -8 20 -23 36 -16 17 -29 35 -29 41 0 5 -7 16 -15 25
-8 8 -13 18 -10 23 3 4 -2 11 -11 14 -8 3 -12 10 -9 16 3 5 1 10 -4 10 -6 0
-11 13 -11 28 0 16 -8 37 -18 48 -19 20 -36 54 -34 67 1 4 -3 7 -9 7 -5 0 -8
4 -4 9 3 5 1 12 -5 16 -5 3 -10 15 -10 26 0 11 -4 18 -9 15 -5 -4 -8 2 -7 11
2 10 -2 23 -8 29 -15 16 -34 45 -50 74 -7 14 -18 24 -24 23 -6 -2 -9 4 -6 12
4 8 1 15 -5 15 -6 0 -11 5 -11 11 0 6 -13 23 -30 39 -16 15 -26 30 -23 34 3 3
-1 6 -10 6 -9 0 -22 9 -29 20 -7 11 -18 20 -25 20 -7 0 -13 4 -13 8 0 4 -13
13 -30 19 -16 6 -34 22 -39 35 -12 32 -37 51 -100 77 -44 19 -66 22 -122 18
-38 -3 -72 -1 -75 4 -3 5 -24 19 -46 30 -45 23 -86 21 -139 -5 -31 -15 -79 -8
-79 13 0 5 -20 17 -44 27 -26 11 -51 31 -61 47 -16 27 -16 30 18 95 20 37 38
85 40 107 3 22 12 63 20 90 58 187 61 204 34 247 -27 43 -28 46 -18 171 8 93
12 111 30 123 12 9 21 20 21 25 0 6 -7 3 -16 -6 -15 -15 -17 -15 -30 3 -7 10
-15 32 -18 47 -3 15 -11 35 -19 44 -25 28 -33 73 -31 161 2 94 -6 123 -38 150
l-22 17 22 7 c17 6 20 11 13 24 -4 9 -7 24 -6 33 3 17 -10 19 -32 6 -16 -10
-22 3 -13 28 5 13 0 25 -16 41 -13 11 -21 24 -17 27 3 4 -8 7 -25 7 -17 0 -38
7 -46 16 -18 18 -21 28 -5 18 7 -4 6 3 -2 17 -7 13 -12 28 -11 32 1 4 -6 10
-15 13 -10 3 -25 8 -33 12 -8 3 -21 4 -27 3 -7 -1 -13 2 -13 7 0 15 -74 49
-105 47 -16 0 -46 4 -65 10 -19 7 -53 10 -74 9 -22 -2 -46 2 -55 9 -10 8 -13
8 -8 0 11 -18 -29 -26 -55 -10 -42 27 -90 27 -122 2z"/>
<path d="M1528 4278 c5 -5 16 -8 23 -6 8 3 3 7 -10 11 -17 4 -21 3 -13 -5z"/>
</g>
</svg>
